<mxfile>
    <diagram id="sOPhLfDsW7TCmYk1cRLa" name="ページ1">
        <mxGraphModel dx="724" dy="610" grid="0" gridSize="10" guides="1" tooltips="1" connect="1" arrows="1" fold="1" page="0" pageScale="1" pageWidth="827" pageHeight="1169" math="0" shadow="0">
            <root>
                <mxCell id="0"/>
                <mxCell id="1" parent="0"/>
                <mxCell id="2" value="" style="outlineConnect=0;dashed=0;verticalLabelPosition=bottom;verticalAlign=top;align=center;html=1;shape=mxgraph.aws3.cloudfront;fillColor=#F58536;gradientColor=none;" vertex="1" parent="1">
                    <mxGeometry x="214" y="267" width="76.5" height="93" as="geometry"/>
                </mxCell>
            </root>
        </mxGraphModel>
    </diagram>
</mxfile>
